{
    "asset" : {
        "generator" : "Khronos glTF Blender I/O v3.4.50",
        "version" : "2.0"
    },
    "scene" : 0,
    "scenes" : [
        {
            "name" : "Scene",
            "nodes" : [
                5
            ]
        }
    ],
    "nodes" : [
        {
            "mesh" : 0,
            "name" : "HDI-ExtrusionRojo-Rojo"
        },
        {
            "children" : [
                0
            ],
            "name" : "HDI-ExtrusionRojo",
            "translation" : [
                -22.940593719482422,
                14.999693870544434,
                -0.2201562225818634
            ]
        },
        {
            "mesh" : 1,
            "name" : "HDI-ExtrusionVerde-Verde"
        },
        {
            "children" : [
                2
            ],
            "name" : "HDI-ExtrusionVerde",
            "translation" : [
                0,
                15.000005722045898,
                -0.2201562076807022
            ]
        },
        {
            "mesh" : 2,
            "name" : "HDI-FrontalUV",
            "translation" : [
                0,
                15.000005722045898,
                4.779843807220459
            ]
        },
        {
            "children" : [
                1,
                3,
                4
            ],
            "name" : "HDI",
            "rotation" : [
                0,
                0.7071068286895752,
                0,
                0.7071067094802856
            ],
            "scale" : [
                0.010000000707805157,
                0.009999999776482582,
                0.010000000707805157
            ],
            "translation" : [
                0,
                -0.0006634792080149055,
                0
            ]
        }
    ],
    "materials" : [
        {
            "name" : "Rojo",
            "pbrMetallicRoughness" : {
                "baseColorFactor" : [
                    0.5843137502670288,
                    0.0235294122248888,
                    0.05882352963089943,
                    1
                ],
                "metallicFactor" : 0,
                "roughnessFactor" : 0.5
            }
        },
        {
            "name" : "Verde",
            "pbrMetallicRoughness" : {
                "baseColorFactor" : [
                    0.027450980618596077,
                    0.2823529541492462,
                    0.12941177189350128,
                    1
                ],
                "metallicFactor" : 0,
                "roughnessFactor" : 0.5
            }
        },
        {
            "name" : "UVmap",
            "pbrMetallicRoughness" : {
                "baseColorFactor" : [
                    0.800000011920929,
                    0.800000011920929,
                    0.800000011920929,
                    1
                ],
                "baseColorTexture" : {
                    "index" : 0
                },
                "metallicFactor" : 0,
                "roughnessFactor" : 0.5
            }
        }
    ],
    "meshes" : [
        {
            "name" : "HDI-ExtrusionRojo-Rojo",
            "primitives" : [
                {
                    "attributes" : {
                        "POSITION" : 0,
                        "TEXCOORD_0" : 1,
                        "NORMAL" : 2
                    },
                    "indices" : 3,
                    "material" : 0
                }
            ]
        },
        {
            "name" : "HDI-ExtrusionVerde-Verde",
            "primitives" : [
                {
                    "attributes" : {
                        "POSITION" : 4,
                        "TEXCOORD_0" : 5,
                        "NORMAL" : 6
                    },
                    "indices" : 7,
                    "material" : 1
                }
            ]
        },
        {
            "name" : "HDI-FrontalUV",
            "primitives" : [
                {
                    "attributes" : {
                        "POSITION" : 8,
                        "TEXCOORD_0" : 9,
                        "NORMAL" : 10
                    },
                    "indices" : 11,
                    "material" : 2
                }
            ]
        }
    ],
    "textures" : [
        {
            "sampler" : 0,
            "source" : 0
        }
    ],
    "images" : [
        {
            "bufferView" : 12,
            "mimeType" : "image/jpeg",
            "name" : "Image_0"
        }
    ],
    "accessors" : [
        {
            "bufferView" : 0,
            "componentType" : 5126,
            "count" : 14,
            "max" : [
                5.0055766105651855,
                4.99864387512207,
                5
            ],
            "min" : [
                -5.0055766105651855,
                -4.99864387512207,
                -5
            ],
            "type" : "VEC3"
        },
        {
            "bufferView" : 1,
            "componentType" : 5126,
            "count" : 14,
            "type" : "VEC2"
        },
        {
            "bufferView" : 2,
            "componentType" : 5126,
            "count" : 14,
            "type" : "VEC3"
        },
        {
            "bufferView" : 3,
            "componentType" : 5123,
            "count" : 18,
            "type" : "SCALAR"
        },
        {
            "bufferView" : 4,
            "componentType" : 5126,
            "count" : 413,
            "max" : [
                37.95000076293945,
                14.999994277954102,
                5
            ],
            "min" : [
                -37.95000076293945,
                -14.999994277954102,
                -5
            ],
            "type" : "VEC3"
        },
        {
            "bufferView" : 5,
            "componentType" : 5126,
            "count" : 413,
            "type" : "VEC2"
        },
        {
            "bufferView" : 6,
            "componentType" : 5126,
            "count" : 413,
            "type" : "VEC3"
        },
        {
            "bufferView" : 7,
            "componentType" : 5123,
            "count" : 780,
            "type" : "SCALAR"
        },
        {
            "bufferView" : 8,
            "componentType" : 5126,
            "count" : 194,
            "max" : [
                37.95000076293945,
                14.999994277954102,
                1.470721144869458e-07
            ],
            "min" : [
                -37.95000076293945,
                -14.999994277954102,
                -1.470721144869458e-07
            ],
            "type" : "VEC3"
        },
        {
            "bufferView" : 9,
            "componentType" : 5126,
            "count" : 194,
            "type" : "VEC2"
        },
        {
            "bufferView" : 10,
            "componentType" : 5126,
            "count" : 194,
            "type" : "VEC3"
        },
        {
            "bufferView" : 11,
            "componentType" : 5123,
            "count" : 258,
            "type" : "SCALAR"
        }
    ],
    "bufferViews" : [
        {
            "buffer" : 0,
            "byteLength" : 168,
            "byteOffset" : 0,
            "target" : 34962
        },
        {
            "buffer" : 0,
            "byteLength" : 112,
            "byteOffset" : 168,
            "target" : 34962
        },
        {
            "buffer" : 0,
            "byteLength" : 168,
            "byteOffset" : 280,
            "target" : 34962
        },
        {
            "buffer" : 0,
            "byteLength" : 36,
            "byteOffset" : 448,
            "target" : 34963
        },
        {
            "buffer" : 0,
            "byteLength" : 4956,
            "byteOffset" : 484,
            "target" : 34962
        },
        {
            "buffer" : 0,
            "byteLength" : 3304,
            "byteOffset" : 5440,
            "target" : 34962
        },
        {
            "buffer" : 0,
            "byteLength" : 4956,
            "byteOffset" : 8744,
            "target" : 34962
        },
        {
            "buffer" : 0,
            "byteLength" : 1560,
            "byteOffset" : 13700,
            "target" : 34963
        },
        {
            "buffer" : 0,
            "byteLength" : 2328,
            "byteOffset" : 15260,
            "target" : 34962
        },
        {
            "buffer" : 0,
            "byteLength" : 1552,
            "byteOffset" : 17588,
            "target" : 34962
        },
        {
            "buffer" : 0,
            "byteLength" : 2328,
            "byteOffset" : 19140,
            "target" : 34962
        },
        {
            "buffer" : 0,
            "byteLength" : 516,
            "byteOffset" : 21468,
            "target" : 34963
        },
        {
            "buffer" : 0,
            "byteLength" : 1954911,
            "byteOffset" : 21984
        }
    ],
    "samplers" : [
        {
            "magFilter" : 9729,
            "minFilter" : 9987
        }
    ],
    "buffers" : [
        {
            "byteLength" : 1976896,
            "uri" : "data:application/octet-stream;base64,"
        }
    ]
}
